<?xml version="1.0" standalone="no"?>
<!DOCTYPE svg PUBLIC "-//W3C//DTD SVG 20010904//EN"
 "http://www.w3.org/TR/2001/REC-SVG-20010904/DTD/svg10.dtd">
<svg version="1.0" xmlns="http://www.w3.org/2000/svg"
 width="259.000000pt" height="259.000000pt" viewBox="0 0 259.000000 259.000000"
 preserveAspectRatio="xMidYMid meet">
<metadata>
Created by potrace 1.14, written by Peter Selinger 2001-2017
</metadata>
<g transform="translate(0.000000,259.000000) scale(0.100000,-0.100000)"
fill="#000000" stroke="none">
<path d="M800 2136 c0 -36 7 -78 15 -97 l16 -34 -7 45 c-11 69 -10 123 2 127
6 2 25 -35 43 -85 31 -85 32 -95 30 -215 -2 -123 -3 -127 -30 -157 -15 -16
-34 -30 -41 -30 -7 0 -2 7 10 16 21 14 22 21 21 162 0 81 -4 156 -9 167 -6 14
-8 4 -7 -35 4 -123 -4 -285 -12 -271 -5 8 -7 21 -4 30 4 13 3 13 -5 2 -7 -9
-12 -10 -16 -2 -16 25 -24 9 -8 -18 14 -25 14 -31 2 -47 -16 -19 -99 -74 -112
-74 -27 0 11 141 45 165 12 8 19 15 17 15 -17 0 -166 -62 -177 -73 -11 -11
-16 -90 -24 -358 -6 -189 -12 -364 -15 -388 l-6 -44 -19 32 c-18 30 -21 31
-86 31 -36 0 -63 -3 -60 -7 4 -3 34 -5 66 -4 51 2 61 -1 70 -18 16 -28 14 -31
-16 -32 -26 -2 -25 -2 7 -10 28 -6 24 -7 -22 -4 -49 3 -58 1 -59 -13 0 -9 -7
1 -15 23 -8 23 -11 28 -9 12 4 -19 1 -29 -10 -33 -22 -9 -19 -44 4 -44 11 0
22 -8 24 -17 4 -17 5 -17 6 0 1 16 9 18 59 16 32 -1 64 1 71 5 20 12 61 15
133 7 44 -5 72 -3 79 3 9 8 10 8 5 -1 -8 -15 10 -18 19 -3 3 6 11 10 16 10 6
0 -1 -14 -15 -31 -14 -17 -26 -34 -26 -39 0 -13 -25 -19 -40 -10 -11 7 -10 14
5 37 15 23 15 25 2 15 -9 -8 -19 -22 -22 -31 -4 -14 -21 -19 -82 -25 -42 -3
-77 -7 -78 -9 -6 -7 -14 -69 -9 -64 4 4 12 3 18 -2 20 -15 154 -23 159 -8 3 7
6 5 6 -6 1 -16 -6 -17 -76 -11 -99 9 -94 8 -120 22 -18 10 -20 18 -16 54 3 24
10 51 15 61 5 9 6 17 4 17 -3 0 -12 -13 -21 -30 -12 -23 -22 -30 -45 -30 -23
0 -30 -5 -30 -19 0 -11 9 -23 21 -26 27 -9 20 -16 -9 -8 -16 4 -22 13 -22 33
0 24 -3 27 -25 22 -26 -5 -35 -37 -13 -45 8 -2 7 -3 -2 -3 -11 1 -17 21 -22
82 -4 45 -12 92 -17 105 -8 19 -9 12 -5 -26 l4 -50 -14 49 c-15 55 -28 66 -71
64 -25 -1 -26 -1 -6 -5 20 -4 22 -9 17 -35 -3 -17 -6 -38 -6 -46 0 -21 -17 -4
-22 23 -3 11 -3 -18 0 -64 4 -62 2 -82 -6 -77 -7 4 -12 34 -13 69 -1 72 -11
113 -27 110 -6 -2 -9 3 -6 10 3 10 -5 12 -33 8 -32 -5 -34 -6 -11 -9 14 -2 29
-9 32 -17 3 -9 0 -12 -10 -8 -11 4 -14 -7 -15 -58 -1 -73 -5 -69 -14 14 -5 45
-9 56 -19 48 -7 -6 -15 -8 -18 -5 -10 9 -21 -78 -20 -151 3 -119 16 -155 56
-155 12 0 27 -5 34 -12 15 -15 104 -29 214 -33 200 -6 445 -37 648 -82 177
-39 209 -49 237 -74 41 -36 33 -36 518 -9 198 10 421 22 495 26 127 7 156 21
50 24 -39 1 -42 3 -23 12 12 6 34 28 49 49 l27 39 72 0 c57 0 74 3 79 16 12
31 7 223 -6 231 -14 8 -17 24 -21 112 -3 59 -9 66 -89 107 -47 24 -47 24 -51
81 -2 32 -4 -15 -5 -104 l-2 -163 -72 0 c-158 0 -422 20 -430 33 -4 6 -7 132
-6 279 2 146 0 264 -4 261 -5 -2 -8 -76 -8 -165 l0 -161 -32 26 c-93 75 -298
174 -435 212 -35 10 -64 23 -64 29 -1 6 -5 -5 -9 -24 l-7 -35 -2 39 -1 39 39
-7 c101 -16 314 -104 417 -173 l59 -39 0 107 c0 59 -2 110 -5 112 -6 7 -240
37 -272 36 -20 -1 169 -38 198 -39 12 0 34 -65 34 -100 0 -21 -2 -20 -40 10
-62 49 -166 98 -247 116 -40 9 -73 19 -73 24 0 4 -36 11 -80 14 -111 10 -132
29 -136 117 l-3 64 12 -63 c7 -37 19 -67 27 -72 9 -5 99 -14 200 -20 180 -11
430 -28 460 -31 46 -6 153 2 141 10 -9 6 -12 18 -8 32 4 13 1 42 -5 66 -9 38
-12 41 -30 32 -10 -6 -24 -8 -31 -6 -7 3 -1 9 13 15 19 8 11 9 -35 5 l-61 -5
-37 41 c-20 22 -40 41 -43 41 -4 0 -13 8 -20 17 -9 14 -10 22 -1 33 7 9 4 8
-9 -2 -30 -26 -34 -23 -36 30 -1 39 -2 41 -5 12 -9 -87 -21 -78 -33 26 -7 65
-6 89 8 134 l17 55 6 -35 c6 -32 6 -31 8 14 l1 49 -21 -19 c-38 -34 -49 -75
-39 -140 12 -70 11 -114 0 -69 -6 23 -8 25 -9 8 0 -12 -9 -23 -18 -26 -16 -3
-16 -5 2 -12 21 -9 35 -24 35 -38 0 -4 -9 1 -21 12 -12 11 -28 17 -37 14 -11
-5 -13 -2 -8 8 4 8 1 6 -8 -5 -14 -18 -15 -17 -13 10 2 25 -2 29 -28 32 -22 2
-37 -4 -55 -23 l-23 -25 24 0 c17 0 33 -11 48 -31 13 -17 21 -32 19 -34 -2 -3
-85 4 -183 14 l-179 19 -31 35 c-17 21 -43 38 -60 42 -23 4 -25 3 -10 -4 18
-8 16 -11 -18 -25 -37 -16 -40 -16 -71 4 -19 11 -45 20 -60 20 -14 0 -26 4
-26 9 0 5 37 13 83 19 l82 9 -82 2 -83 1 0 94 c0 80 -5 107 -30 178 -28 75
-57 118 -81 118 -5 0 -9 -29 -9 -64z m864 -230 c-3 -15 -8 -25 -11 -23 -2 3
-1 17 3 31 3 15 8 25 11 23 2 -3 1 -17 -3 -31z m-979 -156 c-14 -16 -20 -43
-24 -105 -6 -83 -6 -84 14 -65 27 25 87 60 103 60 6 0 12 -9 12 -20 0 -12 -5
-17 -13 -14 -7 2 -41 -14 -75 -36 -35 -22 -65 -40 -69 -40 -9 0 8 183 19 205
12 21 27 35 42 35 5 0 1 -9 -9 -20z m840 10 c-3 -5 -11 -10 -16 -10 -6 0 -7 5
-4 10 3 6 11 10 16 10 6 0 7 -4 4 -10z m37 -5 c0 -5 -5 -11 -11 -13 -6 -2 -11
4 -11 13 0 9 5 15 11 13 6 -2 11 -8 11 -13z m-622 -32 c0 -5 -13 -8 -30 -8
-16 0 -30 3 -30 8 0 4 14 7 30 7 17 0 30 -3 30 -7z m198 -16 c8 -10 6 -13 -11
-14 -12 0 -16 1 -9 4 6 3 10 9 6 14 -8 14 2 11 14 -4z m519 -14 c87 -21 114
-33 143 -59 43 -41 36 -41 -108 -5 -83 22 -117 35 -132 52 -19 24 -25 39 -15
39 3 0 54 -12 112 -27z m-659 10 c-10 -2 -26 -2 -35 0 -10 3 -2 5 17 5 19 0
27 -2 18 -5z m-93 -108 c0 -58 -3 -105 -6 -105 -4 0 -9 -7 -13 -15 -3 -8 -1
-15 4 -15 5 0 15 7 24 15 8 8 25 14 38 14 20 -1 21 -2 3 -6 -11 -3 -29 -12
-40 -19 -26 -19 -64 -18 -87 3 -17 16 -18 8 -18 -215 l0 -231 43 -4 42 -4 -48
-1 -47 -2 1 303 c0 166 4 318 9 337 6 24 7 8 3 -52 -4 -60 -2 -88 5 -88 7 0
13 30 15 73 l3 72 2 -77 c1 -54 -2 -78 -10 -81 -18 -5 9 -37 31 -37 13 0 13 2
2 9 -7 5 -10 14 -7 20 4 6 10 9 14 7 4 -2 6 43 4 100 -3 95 -2 104 15 104 16
0 18 -10 18 -105z m32 -47 c-2 -29 -3 -6 -3 52 0 58 1 81 3 53 2 -29 2 -77 0
-105z m143 141 c12 -8 11 -9 -6 -5 -11 4 -34 0 -50 -8 -16 -8 -40 -17 -54 -20
-21 -5 -20 -4 5 9 17 8 36 14 43 15 7 0 10 5 7 10 -8 13 36 13 55 -1z m-223
-136 c-2 -27 -3 -5 -3 47 0 52 1 74 3 48 2 -27 2 -69 0 -95z m-60 105 c-3 -8
-6 -5 -6 6 -1 11 2 17 5 13 3 -3 4 -12 1 -19z m233 -7 c-8 -5 -26 -11 -40 -15
-21 -5 -20 -3 5 9 32 15 60 20 35 6z m107 -93 c-2 -18 -4 -6 -4 27 0 33 2 48
4 33 2 -15 2 -42 0 -60z m20 10 c-2 -13 -4 -3 -4 22 0 25 2 35 4 23 2 -13 2
-33 0 -45z m-370 -30 c-2 -13 -4 -5 -4 17 -1 22 1 32 4 23 2 -10 2 -28 0 -40z
m1118 24 c-3 -8 -5 -36 -5 -63 l0 -50 -37 3 c-39 3 -41 7 -57 91 l-7 37 56 -2
c41 -2 54 -6 50 -16z m-1166 4 c-2 -2 -15 -9 -29 -15 -24 -11 -24 -11 -6 3 16
13 49 24 35 12z m1211 -61 c0 -40 -4 -55 -14 -55 -10 0 -13 15 -12 55 1 37 5
55 14 55 8 0 12 -18 12 -55z m34 39 c9 -24 7 -94 -3 -94 -5 0 -11 25 -13 55
-3 54 4 71 16 39z m-1301 -51 c-6 -38 -20 -43 -26 -10 -2 12 -5 -35 -6 -104
-2 -198 -13 -399 -23 -399 -10 0 -10 132 -1 368 4 127 9 172 18 168 6 -2 18 0
26 4 17 11 18 11 12 -27z m71 15 c11 -43 6 -85 -11 -99 -15 -11 -16 -11 -5 1
6 8 12 31 12 52 0 32 -4 39 -26 44 -19 5 -22 9 -12 15 22 14 35 10 42 -13z
m1036 -13 c0 -32 -2 -35 -29 -35 -42 0 -61 9 -61 30 0 18 36 38 73 39 13 1 17
-7 17 -34z m-1187 18 c-7 -2 -19 -2 -25 0 -7 3 -2 5 12 5 14 0 19 -2 13 -5z
m730 -10 c-7 -2 -19 -2 -25 0 -7 3 -2 5 12 5 14 0 19 -2 13 -5z m-203 -23
c-24 -15 -36 -11 -14 4 10 8 21 12 24 10 2 -3 -2 -9 -10 -14z m290 10 c10 -6
2 -7 -25 -3 -49 7 -58 13 -19 13 16 0 36 -5 44 -10z m-703 -32 c-3 -7 -5 -2
-5 12 0 14 2 19 5 13 2 -7 2 -19 0 -25z m316 15 c-7 -2 -21 -2 -30 0 -10 3 -4
5 12 5 17 0 24 -2 18 -5z m54 -9 c-3 -3 -12 -4 -19 -1 -8 3 -5 6 6 6 11 1 17
-2 13 -5z m150 -21 c17 -7 12 -25 -8 -31 -11 -3 -11 -2 1 7 12 8 6 10 -25 10
-22 -1 -32 -3 -22 -6 10 -3 17 -14 17 -29 0 -13 6 -25 13 -25 6 -1 -6 -5 -28
-10 l-40 -7 48 1 c48 2 66 -9 25 -15 -15 -2 -23 -10 -23 -23 0 -13 8 -21 23
-23 31 -5 28 -20 -5 -24 -25 -3 -28 -7 -31 -45 -3 -40 -2 -43 23 -43 14 0 24
-4 21 -9 -4 -5 0 -12 6 -15 7 -3 3 -3 -9 0 -16 4 -29 -3 -49 -25 -16 -18 -37
-31 -51 -31 -19 0 -23 5 -23 30 0 23 -4 30 -20 30 -16 0 -20 -7 -20 -35 l0
-34 68 -3 67 -3 -73 -5 -72 -5 0 138 c0 123 2 137 18 138 16 1 16 2 0 6 -13 3
-18 14 -17 36 2 30 2 31 6 5 3 -22 10 -28 29 -28 20 0 24 5 24 30 0 28 -3 30
-37 30 -42 0 -38 9 9 21 32 7 126 3 155 -8z m-529 -47 c12 -3 11 -4 -3 -3 -12
1 -20 10 -21 22 -1 14 0 15 3 3 2 -9 12 -19 21 -22z m202 -152 l0 -195 -32 3
-33 3 -3 193 -2 192 35 0 35 0 0 -196z m531 135 c86 -27 225 -93 264 -123 11
-9 -19 4 -67 28 -47 24 -140 60 -205 81 -146 46 -172 57 -118 48 22 -3 79 -18
126 -34z m-844 -166 c-2 -38 -3 -7 -3 67 0 74 1 105 3 68 2 -38 2 -98 0 -135z
m433 119 c0 -17 -17 -7 -31 19 -9 18 -9 19 10 7 12 -7 21 -19 21 -26z m-297
-29 c30 -27 37 -39 37 -70 l0 -38 -24 35 c-13 19 -38 45 -55 58 -20 15 -31 31
-31 48 0 29 7 26 73 -33z m266 -31 c17 -27 31 -60 31 -73 -1 -20 -5 -15 -25
23 -14 26 -29 49 -35 53 -9 6 -15 45 -6 45 2 0 18 -22 35 -48z m307 -7 c18
-13 18 -14 -5 -8 -31 8 -24 -17 10 -35 l24 -14 -27 6 c-23 5 -28 3 -28 -14 0
-11 5 -20 10 -20 6 0 10 -4 10 -10 0 -5 -7 -7 -15 -4 -11 5 -15 21 -15 60 0
57 5 63 36 39z m-606 -40 c0 -8 -7 -15 -15 -15 -8 0 -15 7 -15 15 0 8 7 15 15
15 8 0 15 -7 15 -15z m50 -50 c0 -5 -9 1 -20 15 -11 14 -20 30 -20 35 0 6 9
-1 20 -15 11 -14 20 -29 20 -35z m187 -107 c-2 -24 -4 -7 -4 37 0 44 2 63 4
43 2 -21 2 -57 0 -80z m598 87 c46 -5 224 -90 232 -111 3 -8 11 -14 19 -14 10
0 14 -13 14 -45 l0 -45 -99 0 c-102 0 -114 4 -124 45 -4 16 -5 16 -6 -5 -2
-45 11 -52 112 -59 90 -7 127 -20 127 -44 0 -6 -18 -7 -47 -3 -27 3 -98 6
-158 7 l-111 1 -17 43 c-18 43 -82 126 -95 123 -4 -1 -23 4 -44 10 -30 11 -42
10 -72 -2 -20 -8 -36 -12 -36 -9 0 10 -40 -29 -62 -60 -12 -16 -31 -59 -44
-95 -19 -53 -22 -58 -18 -27 8 50 57 171 68 167 4 -2 20 7 34 21 37 34 65 47
103 47 66 0 148 -72 193 -170 16 -34 16 -29 1 18 -6 21 -5 22 14 10 26 -16 46
1 36 32 -6 17 -13 21 -35 18 -16 -2 -27 -1 -24 4 3 4 12 8 20 8 24 0 15 13
-29 46 -54 41 -93 60 -137 67 l-35 6 43 -19 c54 -24 54 -32 1 -14 -53 19 -101
6 -146 -38 -18 -17 -33 -27 -33 -22 0 13 69 78 100 95 35 18 106 28 165 23 28
-3 68 -7 90 -9z m-521 -54 c52 -67 59 -87 19 -49 -16 14 -38 31 -50 37 -16 8
-23 21 -23 41 0 17 2 30 4 30 3 0 25 -27 50 -59z m-316 25 c-7 -8 -15 -12 -17
-11 -5 6 10 25 20 25 5 0 4 -6 -3 -14z m49 -81 c-4 -8 -14 -14 -24 -14 -17 1
-17 2 0 6 9 2 17 12 17 20 0 9 3 14 6 10 4 -3 4 -13 1 -22z m253 5 c0 -13 -7
-20 -20 -20 -13 0 -20 7 -20 20 0 13 7 20 20 20 13 0 20 -7 20 -20z m1456 -58
c-4 -3 -11 -1 -17 5 -6 6 -26 9 -45 6 -32 -5 -34 -4 -32 20 l2 25 49 -25 c27
-13 46 -27 43 -31z m-1441 -5 l60 -4 -64 1 c-48 1 -65 5 -68 16 -3 11 -2 11 4
3 5 -6 35 -14 68 -16z m-265 -1 c8 -2 -9 -4 -37 -5 -29 0 -53 3 -53 7 0 7 52
6 90 -2z m373 7 c-7 -2 -21 -2 -30 0 -10 3 -4 5 12 5 17 0 24 -2 18 -5z m424
-8 c3 -9 3 -19 -1 -22 -7 -7 -36 16 -36 28 0 15 30 10 37 -6z m922 -5 c12 0
21 -4 21 -9 0 -5 -8 -8 -17 -6 -10 2 -40 7 -68 11 -46 7 -48 8 -20 14 17 4 38
3 47 -2 9 -4 26 -8 37 -8z m-1599 -20 c0 -32 -9 -37 -28 -18 -19 19 -15 48 8
48 16 0 20 -7 20 -30z m474 14 c12 -5 14 -10 6 -19 -8 -9 -6 -14 5 -19 8 -3
15 -10 15 -15 0 -5 -12 -3 -27 4 -16 8 -36 12 -47 9 -13 -4 -17 -2 -14 7 3 8
18 17 34 20 24 6 25 7 6 8 -13 0 -33 -4 -45 -10 -21 -10 -21 -10 -3 5 21 17
44 20 70 10z m-756 -11 c-10 -2 -26 -2 -35 0 -10 3 -2 5 17 5 19 0 27 -2 18
-5z m52 -23 c0 -20 -5 -30 -15 -30 -17 0 -18 4 -9 38 9 32 24 27 24 -8z m1747
15 c0 -8 -4 -12 -9 -9 -4 3 -8 9 -8 15 0 5 4 9 8 9 5 0 9 -7 9 -15z m67 -9
c-5 -14 -63 -31 -72 -21 -3 3 2 5 11 5 9 0 14 6 11 13 -3 8 6 13 25 15 23 2
29 -1 25 -12z m-1654 -26 c-8 -5 -46 -9 -85 -8 l-70 2 70 6 c39 4 77 7 85 8
13 2 13 1 0 -8z m310 3 c0 -14 -20 -39 -20 -25 0 8 -21 12 -70 12 -40 0 -70 4
-70 10 0 6 33 10 80 10 44 0 80 -3 80 -7z m1347 -20 c-20 -2 -52 -2 -70 0 -17
2 0 4 38 4 39 0 53 -2 32 -4z m-1427 -14 c-64 -11 -140 -11 -140 1 0 6 37 10
93 9 79 -1 86 -3 47 -10z m125 -6 c-4 -10 -13 -49 -21 -88 -14 -68 -14 -69 -9
-14 5 54 22 119 32 119 3 0 2 -8 -2 -17z m-299 -14 c19 -21 19 -22 -3 -36 -15
-10 -23 -26 -24 -47 0 -27 -2 -28 -10 -11 -7 15 -8 12 -4 -15 l5 -35 -20 24
c-23 27 -27 15 -5 -15 21 -28 18 -40 -5 -19 -11 10 -20 25 -21 34 0 10 -3 11
-5 4 -3 -7 0 -22 6 -35 11 -22 10 -22 -4 -4 -30 37 -18 104 27 154 25 28 39
28 63 1z m494 -15 c22 -19 29 -32 24 -46 -4 -14 -2 -18 5 -13 8 5 10 -2 6 -22
-5 -20 -4 -24 3 -14 8 11 10 -5 10 -53 0 -47 -3 -64 -10 -55 -7 10 -8 5 -4
-16 5 -28 5 -28 -6 -7 -12 25 -48 30 -48 7 0 -14 13 -20 35 -15 6 1 5 -4 -2
-11 -10 -10 -16 -9 -28 1 -13 11 -15 24 -10 56 4 28 1 54 -9 78 -20 49 -27 45
-9 -5 11 -32 11 -49 3 -75 -7 -19 -15 -32 -20 -29 -4 3 -7 -3 -6 -13 1 -13 -6
-17 -31 -16 -18 0 -33 -2 -33 -7 0 -8 67 -69 76 -69 12 0 50 24 62 39 11 14
11 14 6 -2 -10 -29 -60 -50 -87 -37 -21 11 -21 10 -3 -4 23 -19 39 -20 69 -5
19 9 18 7 -3 -10 -28 -23 -60 -28 -60 -9 0 6 -3 8 -7 5 -7 -8 -39 34 -54 72
-6 16 -6 28 2 37 9 11 6 14 -15 14 -26 0 -27 1 -10 17 16 17 16 18 -7 23 -17
4 -25 14 -27 34 -2 16 0 32 5 37 5 5 7 -6 5 -26 -4 -36 2 -42 28 -25 13 9 13
10 0 10 -13 0 -13 1 0 10 13 8 12 10 -4 10 -24 0 -16 9 13 15 18 3 21 1 16
-16 -10 -31 4 -89 20 -89 8 0 15 4 15 9 0 5 9 11 20 14 30 8 24 24 -10 32 -38
8 -40 35 -2 34 24 0 25 -1 7 -9 -19 -8 -19 -9 3 -9 34 -1 26 26 -10 34 -18 4
-42 14 -53 21 -19 13 -18 14 8 14 15 0 27 -5 27 -12 0 -6 3 -8 7 -5 3 4 -3 16
-15 27 -23 22 -30 36 -11 25 6 -4 9 0 7 11 -2 11 2 18 9 17 6 -1 17 4 23 12 7
8 9 15 4 15 -13 0 19 20 33 20 6 0 25 -12 43 -26z m1138 14 c23 -23 12 -28
-58 -28 -63 0 -70 2 -70 20 0 18 7 20 58 20 32 0 63 -5 70 -12z m-2201 -30
c-3 -8 -6 -5 -6 6 -1 11 2 17 5 13 3 -3 4 -12 1 -19z m798 4 c-4 -10 -10 -26
-13 -36 -5 -20 -5 -20 -12 0 -5 14 -8 7 -11 -24 -4 -37 -3 -41 8 -26 15 20 18
7 3 -16 -16 -25 -35 5 -34 53 l1 42 -79 -5 c-43 -3 -78 -3 -78 1 0 21 32 29
123 28 87 -1 98 -3 92 -17z m-988 -14 c-3 -8 -6 -5 -6 6 -1 11 2 17 5 13 3 -3
4 -12 1 -19z m1483 -118 l0 -140 -37 0 c-55 0 -83 10 -83 29 -1 9 -7 -2 -15
-23 -7 -21 -21 -46 -31 -55 -15 -15 -15 -14 1 11 28 44 45 128 45 220 l0 87
33 4 c17 2 44 5 60 5 l27 2 0 -140z m545 114 c204 -9 372 -18 374 -20 7 -6
-20 -63 -36 -76 -10 -8 -38 -12 -72 -10 -40 1 -82 -6 -146 -27 l-90 -30 50 -2
c61 -3 172 -8 202 -8 12 -1 34 -12 50 -25 l27 -24 -429 -4 c-237 -2 -435 -3
-441 -1 -6 3 -11 15 -11 29 0 18 6 26 26 30 14 3 39 10 55 15 40 12 73 11 82
-3 5 -7 3 -8 -6 -3 -15 9 -159 -19 -148 -30 2 -3 29 0 59 7 48 10 59 9 103
-10 27 -12 67 -22 89 -22 37 0 39 1 22 14 -17 12 -14 14 34 25 28 6 75 11 104
12 l52 1 -50 13 c-27 8 -111 23 -185 35 -172 26 -243 57 -248 108 l-3 34 83
-6 c46 -3 250 -13 453 -22z m-2013 -49 c-2 -16 -8 -38 -12 -49 -6 -15 -9 -7
-9 32 -1 39 2 52 12 49 7 -2 11 -16 9 -32z m83 24 c4 -6 4 -26 0 -45 -5 -30
-9 -33 -21 -24 -14 13 -19 61 -7 73 9 10 21 8 28 -4z m727 -43 l43 2 -40 -7
c-44 -8 -66 7 -64 43 1 15 3 12 10 -9 8 -28 12 -30 51 -29z m-617 -3 c-11 -74
-24 -73 -32 2 -5 42 -4 45 17 45 21 0 22 -3 15 -47z m392 0 c-3 -10 -5 -2 -5
17 0 19 2 27 5 18 2 -10 2 -26 0 -35z m36 -23 c3 -11 1 -18 -4 -14 -5 3 -9 12
-9 20 0 20 7 17 13 -6z m253 -7 c35 -5 43 -8 29 -13 -26 -9 -167 0 -179 11
-12 11 79 12 150 2z m130 -49 c-3 -8 -11 -14 -18 -13 -10 0 -10 2 0 6 6 2 13
17 13 31 1 18 3 21 6 9 3 -10 2 -25 -1 -33z m-456 -13 c21 -4 36 -13 38 -24 3
-15 -7 -17 -77 -17 -45 0 -81 3 -81 8 0 4 3 17 6 29 6 23 15 23 114 4z m289
13 c18 -4 31 -13 31 -22 0 -12 -9 -14 -46 -8 -26 3 -57 6 -70 6 -15 0 -24 6
-24 15 0 16 51 20 109 9z m1516 -20 l30 -26 -35 20 c-19 11 -42 22 -50 25 -11
4 -9 6 5 6 11 1 34 -11 50 -25z m-1178 10 c-3 -3 -12 -4 -19 -1 -8 3 -5 6 6 6
11 1 17 -2 13 -5z m-130 -10 c-3 -3 -12 -4 -19 -1 -8 3 -5 6 6 6 11 1 17 -2
13 -5z m158 -84 c3 -5 2 -10 -4 -10 -5 0 -13 5 -16 10 -3 6 -2 10 4 10 5 0 13
-4 16 -10z m715 -30 c9 -17 8 -20 -7 -20 -32 0 -205 29 -211 34 -3 3 43 6 101
6 96 0 107 -2 117 -20z"/>
<path d="M1078 1343 c-11 -3 -18 -14 -18 -28 0 -20 6 -25 44 -30 24 -4 52 -5
62 -2 11 3 0 5 -22 6 -38 1 -41 3 -37 25 5 26 -3 34 -29 29z"/>
<path d="M1060 1226 l0 -45 44 -6 c25 -4 51 -5 58 -2 7 3 -4 6 -24 6 l-38 1 0
45 c0 38 -3 45 -20 45 -17 0 -20 -7 -20 -44z"/>
<path d="M1465 1128 c71 -37 105 -68 106 -97 0 -23 1 -24 8 -6 4 11 19 23 32
26 l24 7 -24 1 c-14 1 -34 10 -45 20 -22 20 -118 71 -132 71 -5 -1 9 -10 31
-22z"/>
<path d="M1301 1086 c8 -8 79 -35 79 -30 0 3 -16 12 -35 20 -33 14 -53 18 -44
10z"/>
<path d="M1244 1064 c-19 -15 -19 -15 1 -6 11 5 27 12 35 15 13 5 13 6 -1 6
-8 1 -24 -6 -35 -15z"/>
<path d="M1678 1043 c12 -2 32 -2 45 0 12 2 2 4 -23 4 -25 0 -35 -2 -22 -4z"/>
<path d="M1600 998 l0 -36 85 -7 c46 -4 88 -4 94 -1 9 6 8 52 -2 62 -3 4 -44
9 -91 11 l-86 6 0 -35z m34 6 c23 -9 20 -24 -4 -24 -11 0 -20 7 -20 15 0 17 2
18 24 9z m96 -9 c14 -8 21 -15 15 -15 -5 0 -20 -3 -32 -6 -19 -5 -23 -2 -23
15 0 25 6 25 40 6z"/>
<path d="M1520 932 c0 -14 23 -32 42 -32 24 0 23 17 -1 30 -23 12 -41 13 -41
2z"/>
<path d="M1658 893 c7 -3 16 -2 19 1 4 3 -2 6 -13 5 -11 0 -14 -3 -6 -6z"/>
<path d="M1298 863 c7 -3 16 -2 19 1 4 3 -2 6 -13 5 -11 0 -14 -3 -6 -6z"/>
<path d="M1346 838 c10 -14 21 -24 23 -22 3 3 -6 15 -18 27 l-24 22 19 -27z"/>
<path d="M1270 835 c-7 -9 -11 -18 -8 -20 3 -3 11 1 18 10 7 9 11 18 8 20 -3
3 -11 -1 -18 -10z"/>
<path d="M1307 833 c-12 -11 -8 -23 8 -23 8 0 15 7 15 15 0 16 -12 20 -23 8z"/>
<path d="M1335 789 c-10 -15 1 -23 20 -15 9 3 13 10 10 16 -8 13 -22 13 -30
-1z"/>
<path d="M1347 724 c-14 -15 -6 -34 14 -34 14 0 19 5 17 17 -3 18 -20 27 -31
17z"/>
<path d="M1230 566 c0 -2 8 -10 18 -17 15 -13 16 -12 3 4 -13 16 -21 21 -21
13z"/>
<path d="M2403 853 c15 -2 37 -2 50 0 12 2 0 4 -28 4 -27 0 -38 -2 -22 -4z"/>
<path d="M1471 717 c-1 -86 2 -119 12 -121 6 -3 27 -7 45 -10 l32 -5 -1 122
c-1 98 -3 113 -9 74 -5 -27 -11 -52 -14 -55 -9 -8 -33 27 -50 73 -14 39 -14
37 -15 -78z"/>
<path d="M1632 1840 c0 -19 2 -27 5 -17 2 9 2 25 0 35 -3 9 -5 1 -5 -18z"/>
<path d="M1703 1835 c0 -22 2 -30 4 -17 2 12 2 30 0 40 -3 9 -5 -1 -4 -23z"/>
<path d="M1160 1815 c-7 -8 -27 -16 -44 -16 l-31 -2 29 -4 c16 -3 35 -11 43
-19 9 -8 33 -14 61 -13 38 1 42 3 22 9 -21 6 -22 8 -8 15 14 5 15 11 7 26 -5
10 -15 19 -21 19 -7 0 -7 -4 1 -13 6 -8 8 -17 4 -20 -11 -12 -21 -7 -26 13 -6
24 -20 26 -37 5z m20 -10 c-7 -9 -15 -13 -17 -11 -7 7 7 26 19 26 6 0 6 -6 -2
-15z"/>
<path d="M778 1803 c12 -2 30 -2 40 0 9 3 -1 5 -23 4 -22 0 -30 -2 -17 -4z"/>
<path d="M1403 1789 c1 -6 -4 -14 -12 -17 -9 -3 -11 0 -6 9 5 9 1 7 -11 -3
-10 -9 -37 -18 -59 -21 -37 -4 -37 -4 7 -4 26 1 51 -2 54 -6 24 -24 92 8 80
38 -6 17 -57 21 -53 4z m38 -22 c-13 -13 -26 -3 -16 12 3 6 11 8 17 5 6 -4 6
-10 -1 -17z"/>
<path d="M1018 1783 c12 -2 30 -2 40 0 9 3 -1 5 -23 4 -22 0 -30 -2 -17 -4z"/>
<path d="M1271 1786 c2 -2 22 -6 44 -9 28 -5 34 -4 20 3 -19 8 -73 14 -64 6z"/>
<path d="M1767 1711 c-3 -12 -1 -21 3 -21 15 0 23 21 12 32 -6 6 -11 2 -15
-11z"/>
<path d="M1418 1453 c12 -2 30 -2 40 0 9 3 -1 5 -23 4 -22 0 -30 -2 -17 -4z"/>
<path d="M1523 1443 c15 -2 39 -2 55 0 15 2 2 4 -28 4 -30 0 -43 -2 -27 -4z"/>
<path d="M1643 1433 c15 -2 37 -2 50 0 12 2 0 4 -28 4 -27 0 -38 -2 -22 -4z"/>
<path d="M2095 1431 c28 -5 81 -18 120 -29 38 -12 71 -20 73 -17 8 8 -144 48
-193 51 l-50 3 50 -8z"/>
<path d="M1438 1423 c12 -2 30 -2 40 0 9 3 -1 5 -23 4 -22 0 -30 -2 -17 -4z"/>
<path d="M1758 1423 c12 -2 32 -2 45 0 12 2 2 4 -23 4 -25 0 -35 -2 -22 -4z"/>
<path d="M1887 1392 c-15 -16 -17 -49 -17 -253 0 -170 3 -238 12 -247 7 -7 34
-11 63 -10 l50 1 -55 6 -55 6 0 238 c0 290 -10 272 141 263 112 -7 261 -45
282 -73 7 -11 12 -51 12 -107 0 -50 3 -149 7 -220 l6 -128 -164 5 c-121 4
-140 3 -74 -3 50 -4 125 -8 168 -9 l77 -1 0 143 c0 78 3 185 6 237 5 80 3 98
-11 115 -16 20 -16 20 -5 -3 6 -12 9 -42 7 -65 l-4 -42 -1 42 c-2 53 -18 64
-133 98 -110 32 -286 36 -312 7z"/>
<path d="M2032 1359 c3 -8 13 -13 23 -11 9 2 15 0 12 -5 -3 -4 14 -7 36 -7 76
3 83 7 27 14 -30 4 -66 11 -79 15 -18 6 -23 5 -19 -6z"/>
<path d="M1917 1323 c-4 -3 -7 -100 -7 -214 l0 -207 118 -6 c64 -3 155 -9 201
-12 l84 -5 -7 198 c-5 156 -9 200 -21 209 -8 6 -86 18 -172 27 -178 19 -187
20 -196 10z m213 -38 c130 -16 157 -22 147 -31 -8 -8 -330 27 -341 37 -15 13
54 11 194 -6z m28 -47 c67 -7 122 -16 122 -20 0 -4 -12 -5 -27 -3 -16 3 -93
12 -173 20 -79 9 -147 19 -150 22 -3 3 20 3 50 0 30 -3 110 -12 178 -19z m-23
-33 c76 -9 142 -19 145 -22 3 -3 -17 -3 -45 0 -27 3 -104 11 -170 18 -66 6
-124 16 -130 21 -6 6 3 7 25 4 19 -3 98 -13 175 -21z m-29 -30 c149 -16 191
-23 144 -24 -38 -1 -323 28 -328 34 -8 8 25 6 184 -10z m-16 -35 c142 -13 202
-21 197 -26 -1 -2 -70 3 -153 11 -82 8 -161 15 -176 15 -16 0 -28 4 -28 9 0 4
10 7 23 5 12 -2 74 -8 137 -14z m75 -42 c66 -7 112 -14 103 -16 -23 -5 -340
27 -347 35 -6 6 28 3 244 -19z m25 -38 c43 -7 33 -8 -45 -3 -55 3 -127 9 -160
13 -47 7 -37 8 45 4 58 -3 130 -9 160 -14z m-78 -26 c95 -8 175 -17 177 -20 6
-6 -15 -5 -197 10 -90 7 -166 16 -169 20 -9 8 -8 8 189 -10z m175 10 c-3 -3
-12 -4 -19 -1 -8 3 -5 6 6 6 11 1 17 -2 13 -5z m-92 -54 c46 -7 35 -7 -45 -3
-58 3 -134 9 -170 14 -50 6 -39 7 45 3 61 -3 137 -10 170 -14z m13 -36 c46 -3
81 -8 78 -11 -6 -7 -356 20 -356 27 0 5 83 1 278 -16z m-205 -21 c-13 -2 -35
-2 -50 0 -16 2 -5 4 22 4 28 0 40 -2 28 -4z m145 -10 c-21 -2 -55 -2 -75 0
-21 2 -4 4 37 4 41 0 58 -2 38 -4z m130 -10 c-15 -2 -42 -2 -60 0 -18 2 -6 4
27 4 33 0 48 -2 33 -4z"/>
<path d="M286 1002 c-3 -5 8 -6 25 -4 16 2 29 6 29 8 0 8 -49 4 -54 -4z"/>
<path d="M541 853 c-12 -14 -24 -38 -27 -52 -11 -56 -12 -61 -4 -56 4 2 10 20
13 40 3 19 15 49 27 65 26 37 19 40 -9 3z"/>
</g>
</svg>
